<svg viewBox="0 0 50 50" xmlns="http://www.w3.org/2000/svg">
  <rect style="" transform="matrix(1, -0.000059, -0.008552, 1.000001, -11.579252, -38.259251)" x="16.516" y="75.141" width="39" height="4.188" rx="1.004" ry="1.004"/>
  <path d="M 23.555 8.297 L 45.833 18.685 C 46.275 18.891 46.465 19.416 46.26 19.858 L 37.68 38.259 L 32.955 38.259 L 40.663 21.729 C 40.87 21.287 40.678 20.762 40.236 20.555 L 25.438 13.655 C 25.144 13.519 24.794 13.646 24.656 13.941 L 13.317 38.259 L 8.631 38.259 C 8.644 38.202 8.664 38.143 8.69 38.087 L 22.383 8.724 C 22.589 8.283 23.113 8.09 23.555 8.297 Z" style=""/>
</svg>