<?xml version="1.0" encoding="UTF-8" standalone="no"?>
<!-- Created with Inkscape (http://www.inkscape.org/) -->

<svg
  xmlns:dc="http://purl.org/dc/elements/1.1/"
  xmlns:cc="http://creativecommons.org/ns#"
  xmlns:rdf="http://www.w3.org/1999/02/22-rdf-syntax-ns#"
  xmlns:xlink="http://www.w3.org/1999/xlink"
  xmlns:sodipodi="http://sodipodi.sourceforge.net/DTD/sodipodi-0.dtd"
  xmlns:inkscape="http://www.inkscape.org/namespaces/inkscape"
  xmlns="http://www.w3.org/2000/svg"
  width="950"
  height="950"
  id="svg2"
  version="1.1"
  inkscape:version="0.48.4 r9939"
  sodipodi:docname="iTunes OS X.svg">
  <defs
    id="defs4">
    <linearGradient
      inkscape:collect="always"
      id="linearGradient3345">
      <stop
        style="stop-color:#fdfdfd;stop-opacity:1"
        offset="0"
        id="stop3347"/>
      <stop
        style="stop-color:#d4d4d4;stop-opacity:1"
        offset="1"
        id="stop3349"/>
    </linearGradient>
    <linearGradient
      id="linearGradient3288"
      inkscape:collect="always">
      <stop
        id="stop3290"
        offset="0"
        style="stop-color:#16cafd;stop-opacity:1"/>
      <stop
        id="stop3292"
        offset="1"
        style="stop-color:#1861ee;stop-opacity:1"/>
    </linearGradient>
    <linearGradient
      id="linearGradient3270"
      inkscape:collect="always">
      <stop
        id="stop3272"
        offset="0"
        style="stop-color:#fbfbfb;stop-opacity:1"/>
      <stop
        id="stop3274"
        offset="1"
        style="stop-color:#d1d4d2;stop-opacity:1"/>
    </linearGradient>
    <linearGradient
      id="linearGradient3046"
      inkscape:collect="always">
      <stop
        id="stop3048"
        offset="0"
        style="stop-color:#eeeeee;stop-opacity:1"/>
      <stop
        id="stop3050"
        offset="1"
        style="stop-color:#d0d0cd;stop-opacity:1"/>
    </linearGradient>
    <linearGradient
      inkscape:collect="always"
      id="linearGradient3036">
      <stop
        style="stop-color:#ffbb23;stop-opacity:1"
        offset="0"
        id="stop3038"/>
      <stop
        style="stop-color:#e14a00;stop-opacity:1"
        offset="1"
        id="stop3040"/>
    </linearGradient>
    <linearGradient
      inkscape:collect="always"
      id="linearGradient3028">
      <stop
        style="stop-color:#fcfcfc;stop-opacity:1"
        offset="0"
        id="stop3030"/>
      <stop
        style="stop-color:#c9c9c9;stop-opacity:1"
        offset="1"
        id="stop3032"/>
    </linearGradient>
    <linearGradient
      inkscape:collect="always"
      xlink:href="#linearGradient3028"
      id="linearGradient3034"
      x1="327.72357"
      y1="-127.422"
      x2="318.40259"
      y2="694.68982"
      gradientUnits="userSpaceOnUse"/>
    <linearGradient
      inkscape:collect="always"
      xlink:href="#linearGradient3036"
      id="linearGradient3042"
      x1="321.04575"
      y1="-123.09417"
      x2="312.93173"
      y2="690.33435"
      gradientUnits="userSpaceOnUse"/>
    <linearGradient
      inkscape:collect="always"
      xlink:href="#linearGradient3046"
      id="linearGradient3044"
      x1="622.25397"
      y1="432.12851"
      x2="618.21338"
      y2="872.55505"
      gradientUnits="userSpaceOnUse"/>
    <filter
      id="filter3064"
      inkscape:label="Drop Shadow"
      color-interpolation-filters="sRGB">
      <feFlood
        id="feFlood3066"
        flood-opacity="0.5"
        flood-color="rgb(0,0,0)"
        result="flood"/>
      <feComposite
        id="feComposite3068"
        in2="SourceGraphic"
        in="flood"
        operator="in"
        result="composite1"/>
      <feGaussianBlur
        id="feGaussianBlur3070"
        stdDeviation="4"
        result="blur"/>
      <feOffset
        id="feOffset3072"
        dx="0"
        dy="6"
        result="offset"/>
      <feComposite
        id="feComposite3074"
        in2="offset"
        in="SourceGraphic"
        operator="over"
        result="composite2"/>
    </filter>
    <filter
      id="filter3076"
      inkscape:label="Drop Shadow"
      color-interpolation-filters="sRGB">
      <feFlood
        id="feFlood3078"
        flood-opacity="0.5"
        flood-color="rgb(0,0,0)"
        result="flood"/>
      <feComposite
        id="feComposite3080"
        in2="SourceGraphic"
        in="flood"
        operator="in"
        result="composite1"/>
      <feGaussianBlur
        id="feGaussianBlur3082"
        stdDeviation="4"
        result="blur"/>
      <feOffset
        id="feOffset3084"
        dx="0"
        dy="6"
        result="offset"/>
      <feComposite
        id="feComposite3086"
        in2="offset"
        in="SourceGraphic"
        operator="over"
        result="composite2"/>
    </filter>
    <linearGradient
      inkscape:collect="always"
      xlink:href="#linearGradient3028"
      id="linearGradient3098"
      gradientUnits="userSpaceOnUse"
      x1="327.72357"
      y1="-127.422"
      x2="318.40259"
      y2="694.68982"/>
    <filter
      color-interpolation-filters="sRGB"
      inkscape:label="Drop Shadow"
      id="filter3558">
      <feFlood
        result="flood"
        flood-color="rgb(0,0,0)"
        flood-opacity="0.3"
        id="feFlood3560"/>
      <feComposite
        result="composite1"
        operator="in"
        in="flood"
        in2="SourceGraphic"
        id="feComposite3562"/>
      <feGaussianBlur
        result="blur"
        stdDeviation="1"
        id="feGaussianBlur3564"/>
      <feOffset
        result="offset"
        dy="4"
        dx="0"
        id="feOffset3566"/>
      <feComposite
        result="composite2"
        operator="over"
        in="SourceGraphic"
        in2="offset"
        id="feComposite3568"/>
    </filter>
    <filter
      color-interpolation-filters="sRGB"
      inkscape:label="Drop Shadow"
      id="filter3402">
      <feFlood
        result="flood"
        flood-color="rgb(0,0,0)"
        flood-opacity="0.3"
        id="feFlood3404"/>
      <feComposite
        result="composite1"
        operator="in"
        in="flood"
        in2="SourceGraphic"
        id="feComposite3406"/>
      <feGaussianBlur
        result="blur"
        stdDeviation="4"
        id="feGaussianBlur3408"/>
      <feOffset
        result="offset"
        dy="10"
        dx="0"
        id="feOffset3410"/>
      <feComposite
        result="fbSourceGraphic"
        operator="over"
        in="SourceGraphic"
        in2="offset"
        id="feComposite3412"/>
      <feColorMatrix
        id="feColorMatrix3414"
        values="0 0 0 -1 0 0 0 0 -1 0 0 0 0 -1 0 0 0 0 1 0"
        in="fbSourceGraphic"
        result="fbSourceGraphicAlpha"/>
      <feFlood
        in="fbSourceGraphic"
        result="flood"
        flood-color="rgb(0,0,0)"
        flood-opacity="0.3"
        id="feFlood3416"/>
      <feComposite
        result="composite1"
        operator="in"
        in="flood"
        in2="fbSourceGraphic"
        id="feComposite3418"/>
      <feGaussianBlur
        result="blur"
        stdDeviation="4"
        id="feGaussianBlur3420"/>
      <feOffset
        result="offset"
        dy="10"
        dx="0"
        id="feOffset3422"/>
      <feComposite
        result="composite2"
        operator="over"
        in="fbSourceGraphic"
        in2="offset"
        id="feComposite3424"/>
    </filter>
    <linearGradient
      gradientUnits="userSpaceOnUse"
      y2="837.55383"
      x2="292.14374"
      y1="801.80377"
      x1="292.95624"
      id="linearGradient3320"
      xlink:href="#linearGradient3314"
      inkscape:collect="always"/>
    <linearGradient
      gradientUnits="userSpaceOnUse"
      y2="814.60583"
      x2="295.32321"
      y1="554.74921"
      x1="297.31192"
      id="linearGradient3281"
      xlink:href="#linearGradient3275"
      inkscape:collect="always"/>
    <inkscape:path-effect
      is_visible="true"
      id="path-effect3135"
      effect="spiro"/>
    <inkscape:path-effect
      effect="spiro"
      id="path-effect3139"
      is_visible="true"/>
    <inkscape:path-effect
      is_visible="true"
      id="path-effect3148"
      effect="spiro"/>
    <linearGradient
      id="linearGradient3275"
      inkscape:collect="always">
      <stop
        id="stop3277"
        offset="0"
        style="stop-color:#d3e8ed;stop-opacity:1"/>
      <stop
        id="stop3279"
        offset="1"
        style="stop-color:#757575;stop-opacity:1"/>
    </linearGradient>
    <linearGradient
      id="linearGradient3314"
      inkscape:collect="always">
      <stop
        id="stop3316"
        offset="0"
        style="stop-color:#fef2fb;stop-opacity:1"/>
      <stop
        id="stop3318"
        offset="1"
        style="stop-color:#f6f6f6;stop-opacity:1"/>
    </linearGradient>
    <linearGradient
      inkscape:collect="always"
      xlink:href="#linearGradient3288"
      id="linearGradient3238"
      gradientUnits="userSpaceOnUse"
      x1="321.04575"
      y1="-123.09417"
      x2="312.93173"
      y2="690.33435"/>
    <linearGradient
      inkscape:collect="always"
      xlink:href="#linearGradient3270"
      id="linearGradient3268"
      x1="503.05597"
      y1="294.74777"
      x2="499.01535"
      y2="834.16925"
      gradientUnits="userSpaceOnUse"/>
    <filter
      id="filter3276"
      style="color-interpolation-filters:sRGB;"
      inkscape:label="Drop Shadow">
      <feFlood
        id="feFlood3278"
        flood-opacity="0.5"
        flood-color="rgb(0,0,0)"
        result="flood"/>
      <feComposite
        id="feComposite3280"
        in2="SourceGraphic"
        in="flood"
        operator="in"
        result="composite1"/>
      <feGaussianBlur
        id="feGaussianBlur3282"
        in="composite"
        stdDeviation="4"
        result="blur"/>
      <feOffset
        id="feOffset3284"
        dx="0"
        dy="6"
        result="offset"/>
      <feComposite
        id="feComposite3286"
        in2="offset"
        in="SourceGraphic"
        operator="over"
        result="composite2"/>
    </filter>
    <filter
      id="filter3333"
      style="color-interpolation-filters:sRGB;"
      inkscape:label="Drop Shadow">
      <feFlood
        id="feFlood3335"
        flood-opacity="0.5"
        flood-color="rgb(0,0,0)"
        result="flood"/>
      <feComposite
        id="feComposite3337"
        in2="SourceGraphic"
        in="flood"
        operator="in"
        result="composite1"/>
      <feGaussianBlur
        id="feGaussianBlur3339"
        in="composite"
        stdDeviation="4"
        result="blur"/>
      <feOffset
        id="feOffset3341"
        dx="0"
        dy="6"
        result="offset"/>
      <feComposite
        id="feComposite3343"
        in2="offset"
        in="SourceGraphic"
        operator="over"
        result="composite2"/>
    </filter>
    <linearGradient
      inkscape:collect="always"
      xlink:href="#linearGradient3345"
      id="linearGradient3351"
      x1="472.75137"
      y1="290.70715"
      x2="478.81232"
      y2="787.70221"
      gradientUnits="userSpaceOnUse"/>
  </defs>
  <sodipodi:namedview
    id="base"
    pagecolor="#ffffff"
    bordercolor="#666666"
    borderopacity="1.0"
    inkscape:pageopacity="0.0"
    inkscape:pageshadow="2"
    inkscape:zoom="0.49497475"
    inkscape:cx="103.44835"
    inkscape:cy="382.75089"
    inkscape:document-units="px"
    inkscape:current-layer="layer1"
    showgrid="false"
    inkscape:window-width="1600"
    inkscape:window-height="837"
    inkscape:window-x="-8"
    inkscape:window-y="-8"
    inkscape:window-maximized="1"/>
  <metadata
    id="metadata7">
    <rdf:RDF>
      <cc:Work
        rdf:about="">
        <dc:format>image/svg+xml</dc:format>
        <dc:type
          rdf:resource="http://purl.org/dc/dcmitype/StillImage"/>
        <dc:title/>
      </cc:Work>
    </rdf:RDF>
  </metadata>
  <g
    inkscape:label="Calque 1"
    inkscape:groupmode="layer"
    id="layer1"
    transform="translate(0,-102.36218)">
    <path
      transform="matrix(1.0837389,0,0,1.0837389,135.72674,269.23586)"
      d="m 725.71426,283.79074 a 414.28571,414.28571 0 1 1 -828.57141,0 414.28571,414.28571 0 1 1 828.57141,0 z"
      sodipodi:ry="414.28571"
      sodipodi:rx="414.28571"
      sodipodi:cy="283.79074"
      sodipodi:cx="311.42856"
      id="path3026"
      style="fill:url(#linearGradient3098);fill-opacity:1;fill-rule:nonzero;stroke:none;filter:url(#filter3076)"
      sodipodi:type="arc"/>
    <path
      sodipodi:type="arc"
      style="fill:url(#linearGradient3238);fill-opacity:1;fill-rule:nonzero;stroke:none"
      id="path3024"
      sodipodi:cx="311.42856"
      sodipodi:cy="283.79074"
      sodipodi:rx="414.28571"
      sodipodi:ry="414.28571"
      d="m 725.71426,283.79074 a 414.28571,414.28571 0 1 1 -828.57141,0 414.28571,414.28571 0 1 1 828.57141,0 z"
      transform="matrix(0.9959601,0,0,0.9959601,163.06356,294.14666)"/>
    <path
      inkscape:connector-curvature="0"
      id="path3319"
      d="m 226.05607,770.3125 c 18.1205,-16.3625 37.0318,-33.35 42.025,-37.75 4.9933,-4.4 9.1081,-8.45 9.144,-9 0.066,-1.0044 -53.0321,-36.7338 -55.439,-37.3049 -0.7128,-0.1691 -1.7525,1.1669 -2.3346,3 -1.2965,4.0828 -17.8327,65.9378 -27.0488,101.1781 -1.9664,7.5194 -1.9958,9.6268 -0.134,9.6268 0.4625,0 15.6669,-13.3875 33.7874,-29.75 z m 501.6628,26.4579 c 9.6487,-12.6502 15.0556,-40.0228 12.753,-64.5626 -2.6196,-27.9174 -10.2162,-47.2381 -24.7812,-63.0268 -10.8028,-11.7104 -19.9548,-14.2627 -30.4147,-8.4821 -16.3082,9.0126 -31.78,18.5673 -34.0803,21.0465 -6.8617,7.3951 -6.3903,19.4353 1.3632,34.8171 7.8409,15.5553 16.3623,24.4365 35.3237,36.8156 19.5632,12.7719 27.5033,22.5359 31.7899,39.0922 1.3754,5.3121 2.7924,7.5322 4.8362,7.5769 0.3845,0.01 1.8291,-1.4661 3.2102,-3.2768 z m -423.58,-114.7822 c 37.0053,-65.9745 84.2197,-147.8376 113.543,-196.8677 6.3953,-10.6931 11.6277,-19.7518 11.6277,-20.1304 0,-1.2226 -55.0589,-35.0643 -56.5212,-34.7405 -1.4702,0.3255 -50.697,83.1883 -85.6459,144.1668 -11.079,19.3304 -27.5453,46.8461 -36.5919,61.1461 -9.0466,14.3 -17.8154,28.1638 -19.4863,30.8084 -1.7532,2.7748 -2.6609,5.1698 -2.1464,5.6631 2.4778,2.3753 58.0296,37.9316 58.8648,37.6768 0.5352,-0.1634 7.8955,-12.6385 16.3562,-27.7226 z m 359.6707,-23.4353 c 14.3,-8.1317 26.8596,-15.5907 27.9101,-16.5756 1.8701,-1.753 1.7971,-1.9859 -3.4816,-11.1027 -2.9654,-5.1216 -10.1712,-17.6371 -16.0127,-27.8121 -5.8416,-10.175 -11.2951,-18.6325 -12.1188,-18.7945 -2.1818,-0.429 -56.2335,31.1069 -56.6027,33.0243 -0.3075,1.5966 28.079,51.6385 31.2312,55.0567 0.9061,0.9826 1.9685,1.607 2.361,1.3876 0.3924,-0.2193 12.4135,-7.052 26.7135,-15.1837 z m 107.7024,-52.8875 c 0.4033,-0.7208 0.6353,-16.1138 0.5155,-34.2067 l -0.2179,-32.8962 -60.8248,-0.2577 c -53.0734,-0.225 -60.7834,-0.071 -60.5,1.2115 0.1786,0.8081 8.6477,16.3162 18.8201,34.4623 l 18.4954,32.9929 4.0046,0.2955 c 2.2026,0.1626 20.8727,0.1636 41.4892,0 29.6331,-0.2318 37.6381,-0.5677 38.2179,-1.6038 z m -192.4329,-1.4113 c 0.1673,-0.5021 -7.5459,-15.038 -17.1405,-32.3022 l -17.4447,-31.3894 -74.1658,0 -74.1657,0 -17.5122,31.7067 c -9.6317,17.4386 -17.2915,32.0636 -17.0218,32.5 0.6973,1.1281 217.0738,0.6155 217.4507,-0.5151 z m -318.579,-5.4416 c 1.9834,-3.4375 10.1769,-17.6075 18.2078,-31.4889 8.0309,-13.8815 14.6017,-25.6974 14.6017,-26.2576 0,-0.6833 -20.4909,-0.9338 -62.25,-0.761 l -62.25,0.2575 -0.3334,7 c -0.1834,3.85 -0.02,18.3625 0.3629,32.25 l 0.6963,25.25 43.6793,0 43.6793,0 z m 366.8095,-12.749 c 25.3959,-13.9782 25,-13.7324 25,-15.5197 0,-1.741 -13.3813,-25.4007 -58.8091,-103.9813 -49.9345,-86.3764 -71.9258,-124.4517 -86.542,-149.8373 -14.4071,-25.0227 -17.8146,-29.6862 -23.9944,-32.8389 -4.8676,-2.4833 -12.6481,-2.8691 -17.6794,-0.8767 -4.7926,1.8978 -21.6803,11.7313 -26.1464,15.2247 -7.1622,5.6022 -9.8775,16.6805 -6.2288,25.4131 1.9683,4.7108 0.6291,2.3631 47.8664,83.9151 74.3653,128.3867 112.5908,193.1322 114.9553,194.7088 0.5846,0.3898 3.3164,-0.5587 6.0707,-2.1078 2.7542,-1.5491 14.2327,-7.8941 25.5077,-14.1 z m -183.6802,-147.751 c 11.8421,-19.7582 13.5767,-23.2157 14.302,-28.5071 1.5065,-10.9912 -4.2774,-18.3562 -22.5544,-28.7202 -10.3613,-5.8754 -12.0454,-6.5125 -18.121,-6.8558 -8.3024,-0.4692 -12.4014,1.2761 -18.1159,7.7133 -4.2798,4.8211 -20.843,34.2997 -20.8136,37.0433 0.01,0.9802 10.3181,7.8938 27.25,18.2774 14.9782,9.1855 27.5436,16.723 27.9232,16.75 0.3795,0.027 4.9379,-7.0384 10.1297,-15.7009 z"
      style="fill:url(#linearGradient3351);filter:url(#filter3333);fill-opacity:1"
      sodipodi:nodetypes="ssccscsssssscssscsssscsssccsscssccccscscscsccccccscccsccsssscsscccsssssscsssscsssssscscs"/>
  </g>
</svg>
