<?xml version="1.0" encoding="utf-8"?>
<svg viewBox="48.278 23.846 403.39 402.76" xmlns="http://www.w3.org/2000/svg" xmlns:bx="https://boxy-svg.com">
  <defs>
    <pattern id="pattern-0" x="0" y="0" width="25" height="25" patternUnits="userSpaceOnUse" viewBox="0 0 100 100">
      <rect x="0" y="0" width="50" height="100" style="fill: black;"/>
    </pattern>
  </defs>
  <path style="fill: rgb(216, 216, 216); stroke: rgb(0, 0, 0);" d="M 278.287 254.465"/>
  <path style="stroke-width: 4px; fill: rgb(53, 122, 178);" d="M 205.441 175.747 C 205.441 175.747 185.277 176.038 162.369 181.837 C 139.461 187.637 113.809 198.947 102.831 220.984 C 102.831 220.984 129.842 213.398 140.816 213.446 C 151.794 213.494 168.686 221.271 168.686 221.271 C 168.686 221.271 173.439 210.888 184.967 197.379 C 196.495 183.87 205.636 175.651 205.441 175.747 Z"/>
  <path style="stroke-width: 4px; fill: rgb(53, 122, 178);" d="M 330.566 339.933 C 330.566 339.933 310.402 339.642 287.494 333.843 C 264.586 328.043 238.934 316.733 227.956 294.696 C 227.956 294.696 254.967 302.282 265.941 302.234 C 276.919 302.186 293.811 294.409 293.811 294.409 C 293.811 294.409 298.564 304.792 310.092 318.301 C 321.62 331.81 330.761 340.029 330.566 339.933 Z" transform="matrix(0, -1, 1, 0, -37.90889, 596.433945)"/>
  <path style="stroke-width: 4px; fill: rgb(249, 202, 70);" d="M 153.795 259.634 C 153.795 259.634 141.726 253.22 118.513 288.874 C 95.3 324.528 84.864 389.817 84.864 389.817 C 84.864 389.817 158.041 370.211 185.346 354.041 C 212.651 337.871 217.159 320.366 217.159 320.366 C 217.159 320.366 198.454 322.224 173.441 296.432 C 154.351 276.747 153.795 259.634 153.795 259.634 Z"/>
  <path style="fill: rgb(76, 82, 88);" d="M 162.398 238.461 C 162.398 238.461 153.467 248.35 152.912 260.802 C 152.357 273.254 158.719 280.704 160.238 282.931 C 161.757 285.158 174.187 302.731 191.251 313.065 C 208.315 323.399 217.925 322.69 223.022 320.76 C 228.119 318.83 241.943 310.378 238.622 312.328 C 237.342 313.08 227.831 311.295 221.948 309.245 C 211.428 305.578 190.975 287.935 189.99 286.705 C 188.756 285.165 180.143 277.739 170.216 265.546 C 160.289 253.353 162.275 238.202 162.398 238.461 Z"/>
  <path style="stroke-width: 4px; fill: rgb(209, 221, 229);" d="M 189.127 287.466 C 204.874 301.026 218.331 308.585 221.362 309.882 C 224.393 311.179 232.615 313.225 238.098 312.658 C 243.581 312.091 253.339 308.979 270.397 295.591 C 287.456 282.204 310.827 259.655 340.575 223.785 C 359.298 201.209 372.532 177.73 381.876 156.152 C 387.379 143.446 391.533 131.399 394.665 120.585 C 403.116 91.406 404.126 71.2 404.114 71.221 C 404.101 71.242 382.781 71.472 353.495 79.811 C 324.209 88.151 286.958 104.6 251.088 134.348 C 215.218 164.096 192.669 187.468 179.282 204.526 C 165.894 221.584 163.196 231.795 162.446 236.825 C 161.696 241.855 161.797 250.91 165.04 257.893 C 168.282 264.876 174.564 272.433 189.127 287.466 Z" bx:origin="0.499636 0.5"/>
  <path style="fill: rgb(216, 216, 216); stroke: rgb(0, 0, 0);" d="M 187.985 283.173"/>
  <circle style="stroke-width: 6px; fill: rgb(87, 184, 233); stroke: rgb(247, 0, 12);" cx="295.895" cy="179.727" r="33.68"/>
  <path d="M 111.86 215.492"/>
  <path style="fill: rgb(216, 216, 216); stroke: rgb(0, 0, 0);" d="M 181.714 202.311"/>
  <path style="fill: rgb(216, 216, 216); stroke: rgb(0, 0, 0);" d="M 202.539 304.547"/>
  <path style="fill: rgb(76, 82, 88);"/>
  <path style="fill: rgb(216, 216, 216); stroke: rgb(0, 0, 0);" d="M 354.276 184.062"/>
  <path style="stroke-width: 4px; fill: rgb(247, 0, 12);" d="M 353.495 79.811 C 382.781 71.472 404.101 71.242 404.114 71.221 C 404.126 71.2 403.116 91.406 394.665 120.585 C 391.779 130.55 388.025 141.563 383.147 153.173 C 373.758 147.55 333.639 122.138 321.065 91.404 C 332.556 86.455 343.49 82.66 353.495 79.811 Z"/>
  <polygon style="fill: rgb(216, 216, 216); stroke: rgb(0, 0, 0);" points="319.458 70.523"/>
  <path style="fill: rgb(216, 216, 216); stroke: rgb(0, 0, 0);" d="M 411.651 129.366"/>
  <path style="fill: rgb(216, 216, 216); stroke: rgb(0, 0, 0);" d="M 330.035 145.383"/>
</svg>