<svg width="100%" height="100%" viewBox="0 0 512 512" version="1.1" xmlns="http://www.w3.org/2000/svg"
     xml:space="preserve"
     style="fill-rule:evenodd;clip-rule:evenodd;stroke-linecap:round;stroke-linejoin:round;stroke-miterlimit:1.5;">
    <circle cx="256.578" cy="256" r="252.235" style="fill:rgb(63,81,181);"/>
  <clipPath id="_clip1">
        <circle cx="256.578" cy="256" r="252.235"/>
    </clipPath>
  <g clip-path="url(#_clip1)">
        <g transform="matrix(1.39581,0,0,1.39581,-96.6866,-95.6579)">
            <path d="M364.509,168.609L567.9,372L567,538L-13,532L153,203C153,203 235.062,107.181 364.509,168.609Z"
                  style="fill:rgb(50,65,145);"/>
          <g transform="matrix(-0.954755,-0.507652,-0.694583,1.30632,678.732,61.4092)">
                <path d="M355.632,243.511L355.783,483.193L358.583,484.281L384.989,447.984L384.949,238.748"
                      style="fill:white;"/>
            </g>
          <g>
                <path
                  d="M267.636,316.061C253.129,331.607 234.3,341 213.734,341C167.925,341 130.734,294.399 130.734,237C130.734,179.601 167.925,133 213.734,133C236.589,133 257.298,144.6 272.314,163.353C242.48,172.154 220.398,203.377 220.398,240.5C220.398,275.654 240.2,305.519 267.636,316.061Z"
                  style="fill:white;stroke:rgb(54,64,157);stroke-width:1.43px;"/>
            <path
              d="M295.42,317.883C281.164,332.338 263.016,341 243.266,341C197.458,341 160.266,294.399 160.266,237C160.266,179.601 197.458,133 243.266,133C263.016,133 281.164,141.662 295.42,156.117C260.346,163.27 233.77,196.786 233.77,237C233.77,277.214 260.346,310.73 295.42,317.883Z"
              style="fill:white;stroke:rgb(54,64,157);stroke-width:1.43px;"/>
            <g transform="matrix(1,0,0,1.01961,-29.2008,-2.60784)">
                    <path
                      d="M302,133C314.531,133 326.418,136.42 337.075,142.542C349.31,149.571 285.201,166.234 285.201,166.234L267,236.471L295.96,306.829C295.96,306.829 345.934,322.693 335.379,328.403C325.163,333.931 313.871,337 302,337C256.191,337 219,291.295 219,235C219,178.705 256.191,133 302,133Z"
                      style="fill:white;stroke:rgb(54,64,157);stroke-width:1.42px;"/>
                </g>
            <path
              d="M302,133C347.809,133 385,179.601 385,237C385,294.399 347.809,341 302,341C256.191,341 219,294.399 219,237C219,179.601 256.191,133 302,133ZM302,172.589C331.335,172.589 355.151,202.123 355.151,238.5C355.151,274.877 331.335,304.411 302,304.411C272.665,304.411 248.849,274.877 248.849,238.5C248.849,202.123 272.665,172.589 302,172.589Z"
              style="fill:white;stroke:rgb(54,64,157);stroke-width:1.43px;"/>
            </g>
          <g transform="matrix(1.01153,-0.537838,0.694583,1.30632,-184.945,73.0308)">
                <path d="M356.465,243.265L356.342,482.748L357.618,484.039L384.988,444.404L384.949,238.748"
                      style="fill:white;stroke:rgb(54,64,157);stroke-width:1.08px;"/>
            </g>
        </g>
    </g>
</svg>
