<svg version="1" xmlns="http://www.w3.org/2000/svg" width="682.667" height="682.667" viewBox="0 0 512.000000 512.000000"><path d="M77.1 54.6c-7 1.9-11.1 4.4-16 10-8.3 9.4-7.6-7.2-7.6 191.4 0 168.6.1 176.7 1.8 181.8 2.5 7 10.1 15.2 16.9 18.3l5.3 2.4h178c173.4 0 178.1-.1 183-1.9 6.5-2.6 14.7-10.3 17.6-16.9l2.4-5.2v-357l-2.8-5.7c-3.4-6.8-10.8-13.9-17.5-16.5-4.5-1.7-12.4-1.8-180.2-2-151.4-.2-176.2 0-180.9 1.3zM253.5 154v3.5H238c-15.5 0-15.5 0-15.8-2.3-.8-5.2-.4-5.3 16-5l15.3.3v3.5zm37 0v3.5H275c-15.5 0-15.5 0-15.8-2.3-.8-5.2-.4-5.3 16-5l15.3.3v3.5zm36.5 0v4h-31v-8h31v4zm37.5 0v3.5l-15.7.3-15.8.3v-3.4c0-1.9.3-3.7.7-4.1.4-.3 7.5-.5 15.7-.4l15.1.3v3.5zm37 0v3.5H386c-15.5 0-15.5 0-15.8-2.3-.8-5.2-.4-5.3 16-5l15.3.3v3.5zm-186.9 14.7c-.3 1-4.8 11.9-9.9 24.3l-9.4 22.5-4.6.3c-3.3.2-4.7-.1-4.7-1 0-.6 4.4-11.7 9.7-24.5l9.7-23.3h4.9c4.2 0 4.8.2 4.3 1.7zm185.4-1c-.1.5-4.5 11.4-9.8 24.3l-9.8 23.5-4.7.3c-3.2.2-4.7-.1-4.7-.9 0-1.5 17.9-44.8 19.3-46.7 1-1.3 9.7-1.7 9.7-.5zM290.5 222v3.5H275c-15.5 0-15.5 0-15.8-2.3-.8-5.2-.4-5.3 16-5l15.3.3v3.5zm36.5 0v4h-31v-8h31v4zm37.5 0v3.5H349c-15.5 0-15.5 0-15.8-2.3-.8-5.2-.4-5.3 16-5l15.3.3v3.5zm-193.2 15c.5.4-.5 1.8-2.2 3.1l-3.1 2.3v43.1l3.2 2.7 3.3 2.6-2.7 1.2c-3.9 1.8-9.4.5-11.6-2.7-1.4-2.3-1.7-5.8-2-23.3-.4-24.3.3-27.8 5.8-29.7 3.4-1.1 7.7-.8 9.3.7zm182.2-1c.8 0 2.3 1 3.5 2.2 1.9 2.1 2 3.4 2 25.6 0 13-.4 24.1-1 25.1-1.4 2.7-6.4 4.4-10.5 3.7-4.3-.8-4.4-1.8-.5-4.6l3-2.1v-43.5l-3.1-2.3c-1.7-1.3-2.7-2.7-2.2-3.1 1.1-1.1 4.5-1.8 6.1-1.4.8.2 2 .4 2.7.4zm-136.7 54.2l-.3 3.3-15.7.3-15.8.3V287h32.1l-.3 3.2zm37 0l-.3 3.3-15.7.3-15.8.3V287h32.1l-.3 3.2zM141 303.8c0 .4-4.4 11.3-9.8 24.2l-9.7 23.5-4.8.3c-2.9.2-4.7-.1-4.7-.8 0-1 17.2-42.7 19.1-46.3.7-1.2 2.2-1.7 5.4-1.7 2.5 0 4.5.3 4.5.8zm184.6.9c-.4 1-4.8 11.9-10 24.3l-9.3 22.5-5.2.3-5.2.3 1.6-3.8c.9-2.1 5.5-13.1 10.2-24.6l8.7-20.7h4.9c4.2 0 4.8.2 4.3 1.7zm-145.8 53.6l.3 3.8-15.8-.3c-15.7-.3-15.8-.3-16.1-2.6-.8-5.2-.4-5.3 16-5l15.3.3.3 3.8zm36.7-.3v3.5l-15.7.3-15.8.3v-3.4c0-1.9.3-3.7.7-4.1.4-.3 7.5-.5 15.7-.4l15.1.3v3.5zm37 0v3.5l-15.7.3-15.8.3v-3.4c0-1.9.3-3.7.7-4.1.4-.3 7.5-.5 15.7-.4l15.1.3v3.5zm37 0v3.5H275c-15.5 0-15.5 0-15.8-2.3-.8-5.2-.4-5.3 16-5l15.3.3v3.5z"/></svg>